name Walk5.mot
datacolumns 19
datarows 30
range 2.62600000 2.65500000
endheader

                time	   L_ground_force_vx	   L_ground_force_vy	   L_ground_force_vz	   L_ground_force_px	   L_ground_force_py	   L_ground_force_pz	   R_ground_force_vx	   R_ground_force_vy	   R_ground_force_vz	   R_ground_force_px	   R_ground_force_py	   R_ground_force_pz	   L_ground_torque_x	   L_ground_torque_y	   L_ground_torque_z	   R_ground_torque_x	   R_ground_torque_y	   R_ground_torque_z	
          2.62600000	          0.00000000	          0.00000000	          0.00000000	          0.00000000	          0.00000000	          0.00000000	         12.23614619	        746.44686191	         53.24250919	         -0.34069904	          0.00000000	         -0.11058587	          0.00000000	          0.00000000	          0.00000000	          0.00000000	          1.90017682	          0.00000000	
          2.62700000	          0.00000000	          0.00000000	          0.00000000	          0.00000000	          0.00000000	          0.00000000	         12.68335792	        747.17120191	         53.38506691	         -0.34038145	          0.00000000	         -0.11058865	          0.00000000	          0.00000000	          0.00000000	          0.00000000	          1.88140126	          0.00000000	
          2.62800000	          0.00000000	          0.00000000	          0.00000000	          0.00000000	          0.00000000	          0.00000000	         13.12513933	        748.03039758	         53.52562939	         -0.34005986	          0.00000000	         -0.11064065	          0.00000000	          0.00000000	          0.00000000	          0.00000000	          1.87699066	          0.00000000	
          2.62900000	          0.00000000	          0.00000000	          0.00000000	          0.00000000	          0.00000000	          0.00000000	         13.55278666	        748.99280811	         53.66020355	         -0.33973664	          0.00000000	         -0.11071695	          0.00000000	          0.00000000	          0.00000000	          0.00000000	          1.88510809	          0.00000000	
          2.63000000	          0.00000000	          0.00000000	          0.00000000	          0.00000000	          0.00000000	          0.00000000	         13.96699106	        749.96858339	         53.78766328	         -0.33941712	          0.00000000	         -0.11078166	          0.00000000	          0.00000000	          0.00000000	          0.00000000	          1.90063392	          0.00000000	
          2.63100000	          0.00000000	          0.00000000	          0.00000000	          0.00000000	          0.00000000	          0.00000000	         14.37353245	        750.88489355	         53.90854051	         -0.33910999	          0.00000000	         -0.11081159	          0.00000000	          0.00000000	          0.00000000	          0.00000000	          1.91741786	          0.00000000	
          2.63200000	          0.00000000	          0.00000000	          0.00000000	          0.00000000	          0.00000000	          0.00000000	         14.77908201	        751.73028265	         54.02223364	         -0.33882059	          0.00000000	         -0.11080842	          0.00000000	          0.00000000	          0.00000000	          0.00000000	          1.93090301	          0.00000000	
          2.63300000	          0.00000000	          0.00000000	          0.00000000	          0.00000000	          0.00000000	          0.00000000	         15.19009106	        752.54309379	         54.12457954	         -0.33854710	          0.00000000	         -0.11079562	          0.00000000	          0.00000000	          0.00000000	          0.00000000	          1.93756323	          0.00000000	
          2.63400000	          0.00000000	          0.00000000	          0.00000000	          0.00000000	          0.00000000	          0.00000000	         15.61323429	        753.36966724	         54.21552865	         -0.33828638	          0.00000000	         -0.11079223	          0.00000000	          0.00000000	          0.00000000	          0.00000000	          1.93266617	          0.00000000	
          2.63500000	          0.00000000	          0.00000000	          0.00000000	          0.00000000	          0.00000000	          0.00000000	         16.05532374	        754.22932283	         54.30531916	         -0.33803216	          0.00000000	         -0.11080017	          0.00000000	          0.00000000	          0.00000000	          0.00000000	          1.91342911	          0.00000000	
          2.63600000	          0.00000000	          0.00000000	          0.00000000	          0.00000000	          0.00000000	          0.00000000	         16.52197726	        755.11154263	         54.40829846	         -0.33777525	          0.00000000	         -0.11081932	          0.00000000	          0.00000000	          0.00000000	          0.00000000	          1.88480572	          0.00000000	
          2.63700000	          0.00000000	          0.00000000	          0.00000000	          0.00000000	          0.00000000	          0.00000000	         17.01395762	        756.00393965	         54.53389554	         -0.33751500	          0.00000000	         -0.11086410	          0.00000000	          0.00000000	          0.00000000	          0.00000000	          1.85857602	          0.00000000	
          2.63800000	          0.00000000	          0.00000000	          0.00000000	          0.00000000	          0.00000000	          0.00000000	         17.52323425	        756.92338380	         54.68287720	         -0.33725402	          0.00000000	         -0.11095105	          0.00000000	          0.00000000	          0.00000000	          0.00000000	          1.84609837	          0.00000000	
          2.63900000	          0.00000000	          0.00000000	          0.00000000	          0.00000000	          0.00000000	          0.00000000	         18.03804769	        757.90876165	         54.84934952	         -0.33698253	          0.00000000	         -0.11106826	          0.00000000	          0.00000000	          0.00000000	          0.00000000	          1.85264236	          0.00000000	
          2.64000000	          0.00000000	          0.00000000	          0.00000000	          0.00000000	          0.00000000	          0.00000000	         18.55069268	        758.98523545	         55.02550189	         -0.33668675	          0.00000000	         -0.11117637	          0.00000000	          0.00000000	          0.00000000	          0.00000000	          1.87677148	          0.00000000	
          2.64100000	          0.00000000	          0.00000000	          0.00000000	          0.00000000	          0.00000000	          0.00000000	         19.05490014	        760.13812995	         55.20433230	         -0.33636563	          0.00000000	         -0.11123698	          0.00000000	          0.00000000	          0.00000000	          0.00000000	          1.91278012	          0.00000000	
          2.64200000	          0.00000000	          0.00000000	          0.00000000	          0.00000000	          0.00000000	          0.00000000	         19.54392824	        761.30651446	         55.37835140	         -0.33602569	          0.00000000	         -0.11123469	          0.00000000	          0.00000000	          0.00000000	          0.00000000	          1.95354599	          0.00000000	
          2.64300000	          0.00000000	          0.00000000	          0.00000000	          0.00000000	          0.00000000	          0.00000000	         20.02015703	        762.40834706	         55.53875421	         -0.33567080	          0.00000000	         -0.11118822	          0.00000000	          0.00000000	          0.00000000	          0.00000000	          1.99223366	          0.00000000	
          2.64400000	          0.00000000	          0.00000000	          0.00000000	          0.00000000	          0.00000000	          0.00000000	         20.49975549	        763.38914890	         55.68183569	         -0.33530955	          0.00000000	         -0.11113891	          0.00000000	          0.00000000	          0.00000000	          0.00000000	          2.02284507	          0.00000000	
          2.64500000	          0.00000000	          0.00000000	          0.00000000	          0.00000000	          0.00000000	          0.00000000	         21.00116270	        764.26255300	         55.81646112	         -0.33496537	          0.00000000	         -0.11111525	          0.00000000	          0.00000000	          0.00000000	          0.00000000	          2.04071947	          0.00000000	
          2.64600000	          0.00000000	          0.00000000	          0.00000000	          0.00000000	          0.00000000	          0.00000000	         21.53050774	        765.11215959	         55.95733602	         -0.33466831	          0.00000000	         -0.11111545	          0.00000000	          0.00000000	          0.00000000	          0.00000000	          2.04358813	          0.00000000	
          2.64700000	          0.00000000	          0.00000000	          0.00000000	          0.00000000	          0.00000000	          0.00000000	         22.07832264	        766.03906005	         56.10848803	         -0.33443243	          0.00000000	         -0.11112735	          0.00000000	          0.00000000	          0.00000000	          0.00000000	          2.03236110	          0.00000000	
          2.64800000	          0.00000000	          0.00000000	          0.00000000	          0.00000000	          0.00000000	          0.00000000	         22.63083771	        767.09545850	         56.25914679	         -0.33424356	          0.00000000	         -0.11114461	          0.00000000	          0.00000000	          0.00000000	          0.00000000	          2.01103136	          0.00000000	
          2.64900000	          0.00000000	          0.00000000	          0.00000000	          0.00000000	          0.00000000	          0.00000000	         23.18519889	        768.25516116	         56.39660846	         -0.33407287	          0.00000000	         -0.11115835	          0.00000000	          0.00000000	          0.00000000	          0.00000000	          1.98609444	          0.00000000	
          2.65000000	          0.00000000	          0.00000000	          0.00000000	          0.00000000	          0.00000000	          0.00000000	         23.75246658	        769.43611494	         56.51846059	         -0.33389691	          0.00000000	         -0.11115239	          0.00000000	          0.00000000	          0.00000000	          0.00000000	          1.96515071	          0.00000000	
          2.65100000	          0.00000000	          0.00000000	          0.00000000	          0.00000000	          0.00000000	          0.00000000	         24.34455455	        770.56542628	         56.63366856	         -0.33370079	          0.00000000	         -0.11111826	          0.00000000	          0.00000000	          0.00000000	          0.00000000	          1.95432142	          0.00000000	
          2.65200000	          0.00000000	          0.00000000	          0.00000000	          0.00000000	          0.00000000	          0.00000000	         24.95881742	        771.63808272	         56.75509585	         -0.33347762	          0.00000000	         -0.11106812	          0.00000000	          0.00000000	          0.00000000	          0.00000000	          1.95553706	          0.00000000	
          2.65300000	          0.00000000	          0.00000000	          0.00000000	          0.00000000	          0.00000000	          0.00000000	         25.57994554	        772.70907920	         56.88836717	         -0.33323319	          0.00000000	         -0.11102281	          0.00000000	          0.00000000	          0.00000000	          0.00000000	          1.96558631	          0.00000000	
          2.65400000	          0.00000000	          0.00000000	          0.00000000	          0.00000000	          0.00000000	          0.00000000	         26.19538648	        773.82226884	         57.02834633	         -0.33297789	          0.00000000	         -0.11099432	          0.00000000	          0.00000000	          0.00000000	          0.00000000	          1.97774178	          0.00000000	
          2.65500000	          0.00000000	          0.00000000	          0.00000000	          0.00000000	          0.00000000	          0.00000000	         26.80251215	        774.96488851	         57.16613550	         -0.33271571	          0.00000000	         -0.11099469	          0.00000000	          0.00000000	          0.00000000	          0.00000000	          1.98564151	          0.00000000	
